<?xml version="1.0" standalone="no"?>
<!DOCTYPE svg PUBLIC "-//W3C//DTD SVG 20010904//EN"
 "http://www.w3.org/TR/2001/REC-SVG-20010904/DTD/svg10.dtd">
<svg version="1.0" xmlns="http://www.w3.org/2000/svg"
 width="217.000000pt" height="152.000000pt" viewBox="0 0 217.000000 152.000000"
 preserveAspectRatio="xMidYMid meet">

<g transform="translate(0.000000,152.000000) scale(0.100000,-0.100000)"
fill="#575a7b" stroke="none">
<path d="M655 1370 c-3 -5 -1 -10 4 -10 6 0 11 5 11 10 0 6 -2 10 -4 10 -3 0
-8 -4 -11 -10z"/>
<path d="M520 1360 c0 -5 5 -10 10 -10 6 0 10 5 10 10 0 6 -4 10 -10 10 -5 0
-10 -4 -10 -10z"/>
<path d="M616 1351 c-4 -7 -5 -15 -2 -18 9 -9 19 4 14 18 -4 11 -6 11 -12 0z"/>
<path d="M540 1326 c0 -8 4 -17 9 -20 11 -7 33 18 24 27 -12 12 -33 7 -33 -7z"/>
<path d="M645 1278 c-62 -27 -73 -29 -100 -18 -49 20 -72 23 -94 11 -34 -19
-26 -64 26 -160 45 -82 48 -91 53 -181 l5 -95 35 3 c19 2 70 12 112 23 43 10
91 19 107 19 29 0 29 0 19 40 -9 33 -7 50 10 98 51 143 50 229 -5 272 -36 28
-86 25 -168 -12z"/>
<path d="M1239 1207 c-45 -24 -67 -61 -56 -91 4 -9 27 -30 52 -48 25 -17 45
-40 45 -49 0 -22 -37 -49 -66 -49 -55 0 -71 26 -31 53 31 21 15 32 -21 13 -70
-36 -41 -96 47 -96 67 0 111 32 111 81 0 21 -13 36 -55 68 -30 23 -55 45 -55
50 0 14 37 41 68 51 35 10 50 -1 27 -20 -16 -13 -20 -40 -7 -40 12 0 52 44 52
57 0 18 -29 43 -49 43 -10 0 -38 -10 -62 -23z"/>
<path d="M1380 1080 c-33 -66 -60 -124 -60 -130 0 -24 22 -6 51 40 27 43 62
70 75 57 3 -2 -5 -21 -17 -41 -34 -58 -8 -83 57 -54 22 10 28 10 32 0 6 -18
66 -14 93 6 13 11 37 22 52 26 l28 7 -35 -67 c-33 -64 -37 -84 -16 -84 5 0 26
34 46 76 41 84 85 134 116 134 18 0 16 -5 -16 -44 -20 -24 -36 -49 -36 -55 0
-6 15 -11 34 -11 25 0 48 11 87 42 66 52 51 61 -21 13 -29 -20 -55 -33 -58
-31 -2 3 9 21 27 41 40 46 41 75 3 75 -15 0 -37 -7 -49 -15 -19 -13 -22 -13
-27 2 -6 14 -12 10 -37 -20 -38 -46 -57 -47 -61 -4 -3 28 -7 32 -35 35 -44 4
-69 -12 -93 -57 -17 -35 -36 -51 -61 -51 -15 0 -10 20 12 51 11 16 18 36 15
44 -6 18 -39 19 -68 4 -18 -10 -16 -2 15 55 42 76 42 76 22 76 -9 0 -38 -47
-75 -120z m236 -45 c9 -21 -23 -65 -46 -65 -15 0 -20 7 -20 28 0 15 5 33 12
40 17 17 47 15 54 -3z"/>
<path d="M770 839 c-30 -4 -99 -13 -153 -19 l-99 -12 -73 -59 c-170 -134 -286
-254 -330 -339 l-23 -45 62 -37 c33 -20 66 -37 72 -38 6 0 16 12 23 28 25 55
151 258 181 292 l32 35 -27 -50 c-103 -190 -136 -255 -149 -292 l-15 -43 42
-24 c60 -35 201 -74 299 -82 120 -9 255 9 376 52 40 15 42 17 42 58 0 62 -36
253 -66 346 -27 88 -78 183 -116 216 -20 18 -30 19 -78 13z"/>
<path d="M1430 719 c-62 -25 -133 -126 -146 -207 -5 -33 -2 -44 15 -61 25 -25
44 -22 100 12 33 20 34 20 27 1 -16 -42 -19 -77 -6 -72 13 4 67 138 77 191 7
38 -15 35 -32 -5 -18 -40 -31 -57 -69 -86 -96 -74 -94 59 3 159 53 54 71 59
101 27 16 -17 23 -19 32 -10 10 10 8 16 -7 31 -25 25 -63 33 -95 20z"/>
<path d="M1554 566 c-26 -19 -47 -66 -42 -98 4 -32 60 -38 99 -9 16 12 35 21
42 21 21 0 67 39 67 57 0 14 -4 12 -23 -5 -32 -30 -45 -27 -49 11 -3 29 -7 32
-38 35 -19 1 -44 -4 -56 -12z m62 -31 c9 -21 -23 -65 -46 -65 -15 0 -20 7 -20
28 0 15 5 33 12 40 17 17 47 15 54 -3z"/>
</g>
</svg>
